<svg width="204" height="200" viewBox="0 0 204 200" fill="none" xmlns="http://www.w3.org/2000/svg">
<path d="M61.085 58.53C67.025 58.53 71.885 59.43 75.665 61.23C79.535 62.94 82.955 64.965 85.925 67.305C87.725 68.655 89.075 68.835 89.975 67.845C90.965 66.765 91.64 64.29 92 60.42H95.105C94.925 63.75 94.79 67.8 94.7 72.57C94.61 77.34 94.565 83.64 94.565 91.47H91.46C90.83 87.6 90.245 84.54 89.705 82.29C89.165 79.95 88.49 77.97 87.68 76.35C86.96 74.73 85.97 73.11 84.71 71.49C81.92 67.8 78.41 65.145 74.18 63.525C69.95 61.815 65.495 60.96 60.815 60.96C56.405 60.96 52.4 62.085 48.8 64.335C45.29 66.495 42.23 69.645 39.62 73.785C37.1 77.925 35.12 82.92 33.68 88.77C32.33 94.62 31.655 101.19 31.655 108.48C31.655 116.04 32.42 122.745 33.95 128.595C35.48 134.355 37.595 139.215 40.295 143.175C43.085 147.135 46.325 150.15 50.015 152.22C53.795 154.2 57.845 155.19 62.165 155.19C66.215 155.19 70.445 154.38 74.855 152.76C79.265 151.14 82.73 148.53 85.25 144.93C87.23 142.32 88.58 139.485 89.3 136.425C90.11 133.365 90.83 129.09 91.46 123.6H94.565C94.565 131.79 94.61 138.405 94.7 143.445C94.79 148.395 94.925 152.58 95.105 156H92C91.64 152.13 91.01 149.7 90.11 148.71C89.3 147.72 87.905 147.855 85.925 149.115C82.595 151.455 79.04 153.525 75.26 155.325C71.57 157.035 66.8 157.89 60.95 157.89C52.4 157.89 44.885 155.955 38.405 152.085C32.015 148.215 27.02 142.635 23.42 135.345C19.91 128.055 18.155 119.28 18.155 109.02C18.155 98.94 20 90.12 23.69 82.56C27.38 75 32.42 69.105 38.81 64.875C45.29 60.645 52.715 58.53 61.085 58.53ZM152.004 58.935C156.504 58.935 159.924 59.475 162.264 60.555C164.604 61.545 166.674 62.67 168.474 63.93C169.554 64.56 170.409 65.055 171.039 65.415C171.759 65.685 172.434 65.82 173.064 65.82C173.964 65.82 174.594 65.325 174.954 64.335C175.404 63.345 175.764 61.86 176.034 59.88H179.139C179.049 61.41 178.914 63.255 178.734 65.415C178.644 67.485 178.554 70.275 178.464 73.785C178.464 77.205 178.464 81.75 178.464 87.42H175.359C175.089 83.1 174.144 78.96 172.524 75C170.904 71.04 168.519 67.8 165.369 65.28C162.309 62.76 158.259 61.5 153.219 61.5C148.449 61.5 144.489 62.94 141.339 65.82C138.279 68.7 136.749 72.48 136.749 77.16C136.749 81.21 137.784 84.63 139.854 87.42C141.924 90.12 144.669 92.595 148.089 94.845C151.599 97.005 155.379 99.345 159.429 101.865C164.109 104.745 168.249 107.625 171.849 110.505C175.539 113.295 178.419 116.4 180.489 119.82C182.649 123.24 183.729 127.38 183.729 132.24C183.729 138 182.424 142.77 179.814 146.55C177.204 150.33 173.739 153.165 169.419 155.055C165.099 156.945 160.329 157.89 155.109 157.89C150.339 157.89 146.559 157.35 143.769 156.27C140.979 155.19 138.594 154.065 136.614 152.895C134.634 151.635 133.104 151.005 132.024 151.005C131.124 151.005 130.449 151.5 129.999 152.49C129.639 153.48 129.324 154.965 129.054 156.945H125.949C126.129 155.055 126.219 152.85 126.219 150.33C126.309 147.72 126.354 144.345 126.354 140.205C126.444 136.065 126.489 130.845 126.489 124.545H129.594C129.954 129.945 130.944 134.985 132.564 139.665C134.274 144.345 136.839 148.125 140.259 151.005C143.769 153.795 148.404 155.19 154.164 155.19C157.134 155.19 159.924 154.605 162.534 153.435C165.234 152.175 167.439 150.24 169.149 147.63C170.859 144.93 171.714 141.465 171.714 137.235C171.714 133.545 170.814 130.35 169.014 127.65C167.304 124.86 164.874 122.295 161.724 119.955C158.574 117.525 154.884 115.05 150.654 112.53C146.424 109.92 142.464 107.265 138.774 104.565C135.084 101.865 132.114 98.76 129.864 95.25C127.704 91.65 126.624 87.33 126.624 82.29C126.624 76.98 127.794 72.615 130.134 69.195C132.564 65.685 135.714 63.12 139.584 61.5C143.454 59.79 147.594 58.935 152.004 58.935Z" fill="#9668F3"/>
<rect width="204" height="28" transform="translate(0 93)" fill="white"/>
<path d="M20.0994 104.5H18.7784C18.7003 104.12 18.5636 103.786 18.3683 103.499C18.1765 103.211 17.9421 102.969 17.6651 102.774C17.3917 102.575 17.0881 102.426 16.7543 102.327C16.4205 102.227 16.0724 102.178 15.7102 102.178C15.0497 102.178 14.4513 102.344 13.9151 102.678C13.3825 103.012 12.9581 103.504 12.642 104.154C12.3295 104.804 12.1733 105.601 12.1733 106.545C12.1733 107.49 12.3295 108.287 12.642 108.937C12.9581 109.587 13.3825 110.079 13.9151 110.413C14.4513 110.746 15.0497 110.913 15.7102 110.913C16.0724 110.913 16.4205 110.864 16.7543 110.764C17.0881 110.665 17.3917 110.517 17.6651 110.322C17.9421 110.123 18.1765 109.88 18.3683 109.592C18.5636 109.301 18.7003 108.967 18.7784 108.591H20.0994C20 109.148 19.8189 109.647 19.5561 110.088C19.2933 110.528 18.9666 110.903 18.576 111.212C18.1854 111.517 17.7468 111.75 17.2603 111.909C16.7773 112.069 16.2607 112.149 15.7102 112.149C14.7798 112.149 13.9524 111.922 13.228 111.467C12.5036 111.013 11.9336 110.366 11.5181 109.528C11.1026 108.69 10.8949 107.696 10.8949 106.545C10.8949 105.395 11.1026 104.401 11.5181 103.562C11.9336 102.724 12.5036 102.078 13.228 101.624C13.9524 101.169 14.7798 100.942 15.7102 100.942C16.2607 100.942 16.7773 101.022 17.2603 101.181C17.7468 101.341 18.1854 101.576 18.576 101.885C18.9666 102.19 19.2933 102.563 19.5561 103.003C19.8189 103.44 20 103.939 20.0994 104.5ZM23.7341 112V101.091H30.3179V102.263H25.0551V105.949H29.977V107.121H25.0551V110.828H30.4031V112H23.7341ZM34.199 112V101.091H35.52V110.828H40.591V112H34.199ZM44.1365 112V101.091H50.7203V102.263H45.4575V105.949H50.3794V107.121H45.4575V110.828H50.8055V112H44.1365ZM60.5672 103.818C60.5033 103.278 60.2441 102.859 59.7895 102.561C59.335 102.263 58.7774 102.114 58.1169 102.114C57.634 102.114 57.2114 102.192 56.8492 102.348C56.4905 102.504 56.21 102.719 56.0075 102.993C55.8087 103.266 55.7093 103.577 55.7093 103.925C55.7093 104.216 55.7785 104.466 55.917 104.676C56.059 104.882 56.2401 105.054 56.4603 105.192C56.6805 105.327 56.9113 105.439 57.1528 105.528C57.3943 105.613 57.6162 105.683 57.8186 105.736L58.9266 106.034C59.2107 106.109 59.5267 106.212 59.8747 106.343C60.2263 106.474 60.5619 106.654 60.8815 106.881C61.2046 107.105 61.471 107.392 61.6805 107.744C61.89 108.096 61.9948 108.527 61.9948 109.038C61.9948 109.628 61.8403 110.161 61.5313 110.636C61.2259 111.112 60.7785 111.49 60.189 111.771C59.6031 112.051 58.8911 112.192 58.053 112.192C57.2718 112.192 56.5953 112.066 56.0235 111.814C55.4553 111.561 55.0079 111.21 54.6812 110.759C54.358 110.308 54.1752 109.784 54.1325 109.188H55.4962C55.5317 109.599 55.6702 109.94 55.9117 110.21C56.1567 110.477 56.4656 110.675 56.8385 110.807C57.2149 110.935 57.6198 110.999 58.053 110.999C58.5573 110.999 59.01 110.917 59.4113 110.754C59.8126 110.587 60.1304 110.356 60.3648 110.061C60.5992 109.763 60.7164 109.415 60.7164 109.017C60.7164 108.655 60.6151 108.36 60.4127 108.133C60.2103 107.906 59.944 107.721 59.6137 107.579C59.2835 107.437 58.9266 107.312 58.5431 107.206L57.2007 106.822C56.3485 106.577 55.6737 106.228 55.1766 105.773C54.6794 105.319 54.4308 104.724 54.4308 103.989C54.4308 103.378 54.596 102.845 54.9262 102.391C55.26 101.933 55.7075 101.577 56.2686 101.325C56.8332 101.07 57.4635 100.942 58.1595 100.942C58.8627 100.942 59.4877 101.068 60.0345 101.32C60.5814 101.569 61.0146 101.909 61.3343 102.343C61.6574 102.776 61.8279 103.268 61.8456 103.818H60.5672ZM65.0701 102.263V101.091H73.252V102.263H69.8216V112H68.5005V102.263H65.0701ZM78.1118 101.091V112H76.7907V101.091H78.1118ZM82.7079 112H81.323L85.3287 101.091H86.6923L90.698 112H89.313L86.0531 102.817H85.9679L82.7079 112ZM83.2193 107.739H88.8017V108.911H83.2193V107.739ZM93.8972 112V101.091H95.2182V110.828H100.289V112H93.8972ZM115.519 103.818C115.455 103.278 115.196 102.859 114.742 102.561C114.287 102.263 113.73 102.114 113.069 102.114C112.586 102.114 112.164 102.192 111.801 102.348C111.443 102.504 111.162 102.719 110.96 102.993C110.761 103.266 110.661 103.577 110.661 103.925C110.661 104.216 110.731 104.466 110.869 104.676C111.011 104.882 111.192 105.054 111.412 105.192C111.633 105.327 111.863 105.439 112.105 105.528C112.346 105.613 112.568 105.683 112.771 105.736L113.879 106.034C114.163 106.109 114.479 106.212 114.827 106.343C115.178 106.474 115.514 106.654 115.834 106.881C116.157 107.105 116.423 107.392 116.633 107.744C116.842 108.096 116.947 108.527 116.947 109.038C116.947 109.628 116.792 110.161 116.483 110.636C116.178 111.112 115.731 111.49 115.141 111.771C114.555 112.051 113.843 112.192 113.005 112.192C112.224 112.192 111.547 112.066 110.976 111.814C110.407 111.561 109.96 111.21 109.633 110.759C109.31 110.308 109.127 109.784 109.085 109.188H110.448C110.484 109.599 110.622 109.94 110.864 110.21C111.109 110.477 111.418 110.675 111.791 110.807C112.167 110.935 112.572 110.999 113.005 110.999C113.509 110.999 113.962 110.917 114.363 110.754C114.765 110.587 115.083 110.356 115.317 110.061C115.551 109.763 115.669 109.415 115.669 109.017C115.669 108.655 115.567 108.36 115.365 108.133C115.162 107.906 114.896 107.721 114.566 107.579C114.236 107.437 113.879 107.312 113.495 107.206L112.153 106.822C111.301 106.577 110.626 106.228 110.129 105.773C109.632 105.319 109.383 104.724 109.383 103.989C109.383 103.378 109.548 102.845 109.878 102.391C110.212 101.933 110.66 101.577 111.221 101.325C111.785 101.07 112.416 100.942 113.112 100.942C113.815 100.942 114.44 101.068 114.987 101.32C115.534 101.569 115.967 101.909 116.286 102.343C116.61 102.776 116.78 103.268 116.798 103.818H115.519ZM120.619 112V101.091H124.305C125.161 101.091 125.86 101.245 126.404 101.554C126.951 101.86 127.355 102.273 127.618 102.795C127.881 103.317 128.012 103.9 128.012 104.543C128.012 105.185 127.881 105.77 127.618 106.295C127.359 106.821 126.958 107.24 126.414 107.552C125.871 107.861 125.175 108.016 124.326 108.016H121.684V106.844H124.284C124.87 106.844 125.34 106.743 125.695 106.54C126.05 106.338 126.308 106.064 126.468 105.72C126.631 105.372 126.713 104.979 126.713 104.543C126.713 104.106 126.631 103.715 126.468 103.371C126.308 103.026 126.049 102.756 125.69 102.561C125.331 102.362 124.855 102.263 124.262 102.263H121.94V112H120.619ZM130.975 112H129.59L133.595 101.091H134.959L138.965 112H137.58L134.32 102.817H134.234L130.975 112ZM131.486 107.739H137.068V108.911H131.486V107.739ZM142.164 112V101.091H145.85C146.702 101.091 147.402 101.237 147.949 101.528C148.495 101.815 148.9 102.211 149.163 102.716C149.426 103.22 149.557 103.793 149.557 104.436C149.557 105.079 149.426 105.649 149.163 106.146C148.9 106.643 148.497 107.034 147.954 107.318C147.411 107.598 146.716 107.739 145.871 107.739H142.888V106.545H145.829C146.411 106.545 146.88 106.46 147.235 106.29C147.593 106.119 147.853 105.878 148.013 105.565C148.176 105.249 148.258 104.873 148.258 104.436C148.258 103.999 148.176 103.618 148.013 103.291C147.849 102.964 147.588 102.712 147.229 102.534C146.871 102.353 146.397 102.263 145.807 102.263H143.485V112H142.164ZM147.299 107.099L149.983 112H148.449L145.807 107.099H147.299ZM153.259 112V101.091H154.58V106.503H154.707L159.608 101.091H161.334L156.753 106.013L161.334 112H159.736L155.943 106.929L154.58 108.463V112H153.259ZM164.544 112V101.091H165.865V110.828H170.936V112H164.544ZM174.481 112V101.091H181.065V102.263H175.802V105.949H180.724V107.121H175.802V110.828H181.15V112H174.481ZM190.912 103.818C190.848 103.278 190.589 102.859 190.134 102.561C189.68 102.263 189.122 102.114 188.462 102.114C187.979 102.114 187.556 102.192 187.194 102.348C186.835 102.504 186.555 102.719 186.352 102.993C186.153 103.266 186.054 103.577 186.054 103.925C186.054 104.216 186.123 104.466 186.262 104.676C186.404 104.882 186.585 105.054 186.805 105.192C187.025 105.327 187.256 105.439 187.498 105.528C187.739 105.613 187.961 105.683 188.163 105.736L189.271 106.034C189.555 106.109 189.871 106.212 190.219 106.343C190.571 106.474 190.907 106.654 191.226 106.881C191.549 107.105 191.816 107.392 192.025 107.744C192.235 108.096 192.339 108.527 192.339 109.038C192.339 109.628 192.185 110.161 191.876 110.636C191.571 111.112 191.123 111.49 190.534 111.771C189.948 112.051 189.236 112.192 188.398 112.192C187.616 112.192 186.94 112.066 186.368 111.814C185.8 111.561 185.353 111.21 185.026 110.759C184.703 110.308 184.52 109.784 184.477 109.188H185.841C185.876 109.599 186.015 109.94 186.256 110.21C186.501 110.477 186.81 110.675 187.183 110.807C187.56 110.935 187.964 110.999 188.398 110.999C188.902 110.999 189.355 110.917 189.756 110.754C190.157 110.587 190.475 110.356 190.71 110.061C190.944 109.763 191.061 109.415 191.061 109.017C191.061 108.655 190.96 108.36 190.757 108.133C190.555 107.906 190.289 107.721 189.958 107.579C189.628 107.437 189.271 107.312 188.888 107.206L187.545 106.822C186.693 106.577 186.018 106.228 185.521 105.773C185.024 105.319 184.776 104.724 184.776 103.989C184.776 103.378 184.941 102.845 185.271 102.391C185.605 101.933 186.052 101.577 186.613 101.325C187.178 101.07 187.808 100.942 188.504 100.942C189.207 100.942 189.832 101.068 190.379 101.32C190.926 101.569 191.359 101.909 191.679 102.343C192.002 102.776 192.173 103.268 192.19 103.818H190.912Z" fill="black"/>
</svg>
